<svg width="72" height="32" viewBox="0 0 72 32" fill="none" xmlns="http://www.w3.org/2000/svg">
<path d="M66.4889 16.0302H55.9794C55.635 16.0302 55.3047 15.8912 55.0612 15.6439C54.8177 15.3966 54.6809 15.0611 54.6809 14.7114C54.6809 14.3616 54.8177 14.0262 55.0612 13.7788C55.3047 13.5315 55.635 13.3926 55.9794 13.3926H66.4889C66.8333 13.3926 67.1635 13.5315 67.407 13.7788C67.6505 14.0262 67.7873 14.3616 67.7873 14.7114C67.7873 15.0611 67.6505 15.3966 67.407 15.6439C67.1635 15.8912 66.8333 16.0302 66.4889 16.0302Z" fill="#1C1C1C"/>
<path d="M62.2916 9.76845H60.1855C59.8412 9.76845 59.5109 9.62951 59.2674 9.38219C59.0239 9.13486 58.8871 8.79942 58.8871 8.44966C58.8871 8.09989 59.0239 7.76445 59.2674 7.51713C59.5109 7.2698 59.8412 7.13086 60.1855 7.13086H62.2916C62.636 7.13086 62.9663 7.2698 63.2098 7.51713C63.4533 7.76445 63.5901 8.09989 63.5901 8.44966C63.5901 8.79942 63.4533 9.13486 63.2098 9.38219C62.9663 9.62951 62.636 9.76845 62.2916 9.76845Z" fill="#1C1C1C"/>
<path d="M70.7015 18.8924H49.3761C49.485 18.6242 49.5678 18.346 49.6233 18.0615C49.8329 17.0834 49.6934 16.0615 49.2299 15.1781C48.7663 14.2948 48.0088 13.6075 47.0925 13.2389L35.4481 8.3137C35.2884 8.23237 35.1139 8.1854 34.9355 8.17571C34.7571 8.16602 34.5787 8.19383 34.4113 8.2574C34.244 8.32096 34.0914 8.41892 33.963 8.54514C33.8346 8.67136 33.7333 8.82312 33.6653 8.99094C33.5974 9.15875 33.5642 9.33901 33.568 9.52043C33.5718 9.70184 33.6124 9.88052 33.6872 10.0453C33.7621 10.21 33.8696 10.3573 34.0031 10.4779C34.1366 10.5985 34.2932 10.6899 34.463 10.7462L34.7484 10.8664C34.0397 11.1979 33.4084 11.6786 32.8965 12.2767C32.3846 12.8748 32.0037 13.5766 31.7792 14.3356C31.5547 15.0946 31.4917 15.8934 31.5943 16.679C31.6969 17.4646 31.9628 18.2191 32.3743 18.8924H30.7382C29.9703 18.8877 29.2354 18.5746 28.6941 18.0214C28.1527 17.4683 27.8488 16.72 27.8488 15.9401V13.8187C27.8488 13.6455 27.8153 13.474 27.75 13.314C27.6848 13.154 27.5891 13.0086 27.4685 12.8862C27.348 12.7637 27.2048 12.6666 27.0473 12.6003C26.8898 12.534 26.7209 12.4999 26.5504 12.4999C26.3799 12.4999 26.211 12.534 26.0535 12.6003C25.896 12.6666 25.7528 12.7637 25.6322 12.8862C25.5117 13.0086 25.416 13.154 25.3508 13.314C25.2855 13.474 25.2519 13.6455 25.2519 13.8187V21.4628C25.2515 22.2484 25.0974 23.0262 24.7986 23.7509C24.4998 24.4756 24.0623 25.1328 23.5114 25.6843C23.3902 25.8066 23.294 25.9519 23.2282 26.112C23.1625 26.272 23.1284 26.4437 23.1281 26.6171C23.1277 26.7906 23.161 26.9624 23.2261 27.1227C23.2912 27.2831 23.3869 27.4288 23.5075 27.5516C23.6281 27.6743 23.7714 27.7717 23.9292 27.8381C24.0869 27.9046 24.256 27.9387 24.4268 27.9387C24.5976 27.9387 24.7666 27.9044 24.9244 27.8379C25.0821 27.7714 25.2253 27.674 25.3459 27.5512C26.1394 26.7553 26.7693 25.8073 27.199 24.7621C27.6286 23.7169 27.8495 22.5954 27.8488 21.4628V20.6849C28.7193 21.2378 29.7254 21.5306 30.7521 21.53H70.7015C71.0459 21.53 71.3761 21.391 71.6196 21.1437C71.8632 20.8964 72 20.5609 72 20.2112C72 19.8614 71.8632 19.5259 71.6196 19.2786C71.3761 19.0313 71.0459 18.8924 70.7015 18.8924ZM37.0529 18.8924C36.4772 18.8931 35.9142 18.7203 35.4352 18.3959C34.9561 18.0716 34.5826 17.6102 34.3618 17.0701C34.141 16.5301 34.0828 15.9357 34.1947 15.3621C34.3066 14.7885 34.5835 14.2615 34.9904 13.8477C35.3973 13.434 35.9158 13.1521 36.4804 13.0378C37.045 12.9235 37.6304 12.9818 38.1624 13.2054C38.6943 13.429 39.149 13.8079 39.469 14.294C39.7889 14.7802 39.9597 15.3518 39.9597 15.9366C39.9597 16.7199 39.6535 17.4712 39.1085 18.0254C38.5635 18.5796 37.8242 18.8914 37.0529 18.8924ZM45.4599 18.8924H41.7246C42.1648 18.1747 42.4389 17.3649 42.5263 16.5241C42.6137 15.6832 42.5122 14.8332 42.2294 14.0379L46.0934 15.6785C46.4454 15.8265 46.7359 16.0939 46.9155 16.4352C47.0951 16.7764 47.1526 17.1703 47.0783 17.5498C47.004 17.9293 46.8024 18.2708 46.5079 18.5163C46.2135 18.7617 45.8443 18.8959 45.4633 18.8959L45.4599 18.8924Z" fill="#1C1C1C"/>
<path d="M4.74477 21.5907H1.29846C0.954087 21.5907 0.623818 21.4518 0.38031 21.2045C0.136802 20.9571 0 20.6217 0 20.2719C0 19.9222 0.136802 19.5867 0.38031 19.3394C0.623818 19.0921 0.954087 18.9531 1.29846 18.9531H4.74477C5.26272 18.9532 5.76579 18.7772 6.17374 18.4531C6.58169 18.1289 6.87103 17.6754 6.99562 17.1648C7.1202 16.6542 7.07285 16.1159 6.86112 15.6358C6.64939 15.1557 6.28547 14.7614 5.8274 14.5159L2.7849 12.9142C2.62868 12.8368 2.48935 12.7284 2.37517 12.5953C2.261 12.4622 2.17429 12.3071 2.1202 12.1394C2.06611 11.9716 2.04573 11.7945 2.06028 11.6186C2.07483 11.4427 2.124 11.2715 2.20489 11.1152C2.28578 10.959 2.39673 10.8208 2.53117 10.7089C2.66561 10.597 2.8208 10.5137 2.98754 10.4638C3.15428 10.414 3.32918 10.3986 3.50187 10.4187C3.67455 10.4388 3.84151 10.4939 3.99285 10.5807L7.02143 12.2C7.99268 12.7202 8.76449 13.5557 9.21379 14.5732C9.66308 15.5908 9.76399 16.7319 9.50042 17.8145C9.23685 18.897 8.62398 19.8588 7.75953 20.5465C6.89509 21.2341 5.82885 21.6079 4.73085 21.6084L4.74477 21.5907Z" fill="#1C1C1C"/>
<path d="M17.9337 28C17.7476 28.0005 17.5633 27.9708 17.3914 27.9127C17.2196 27.8547 17.0636 27.7693 16.9325 27.6617C16.8003 27.5542 16.6955 27.4265 16.624 27.2859C16.5524 27.1453 16.5156 26.9945 16.5156 26.8423C16.5156 26.6901 16.5524 26.5394 16.624 26.3988C16.6955 26.2582 16.8003 26.1305 16.9325 26.0229C17.5337 25.5351 18.0097 24.9545 18.3325 24.315C18.6554 23.6755 18.8188 22.99 18.8131 22.2985V15.5913C18.8131 15.2842 18.9627 14.9898 19.229 14.7727C19.4952 14.5556 19.8564 14.4336 20.233 14.4336C20.6096 14.4336 20.9708 14.5556 21.2371 14.7727C21.5034 14.9898 21.653 15.2842 21.653 15.5913V22.314C21.6568 23.3074 21.4189 24.2916 20.953 25.2095C20.487 26.1275 19.8024 26.961 18.9387 27.6617C18.8069 27.7694 18.6502 27.8548 18.4777 27.9129C18.3052 27.9709 18.1203 28.0006 17.9337 28Z" fill="#1C1C1C"/>
<path d="M13.9242 21.5898C13.5798 21.5898 13.2496 21.4509 13.006 21.2036C12.7625 20.9563 12.6257 20.6208 12.6257 20.271V5.3188C12.6257 4.96903 12.7625 4.63359 13.006 4.38627C13.2496 4.13894 13.5798 4 13.9242 4C14.2686 4 14.5988 4.13894 14.8423 4.38627C15.0858 4.63359 15.2227 4.96903 15.2227 5.3188V20.271C15.2227 20.6208 15.0858 20.9563 14.8423 21.2036C14.5988 21.4509 14.2686 21.5898 13.9242 21.5898Z" fill="#1C1C1C"/>
<path d="M20.2254 10.5675C19.8912 10.5647 19.5654 10.4614 19.2889 10.2708C19.0125 10.0801 18.7978 9.81056 18.672 9.49614C18.5462 9.18172 18.5148 8.83649 18.582 8.50401C18.6491 8.17153 18.8117 7.86669 19.0492 7.62793C19.2867 7.38917 19.5885 7.2272 19.9165 7.16243C20.2445 7.09767 20.5841 7.13302 20.8923 7.26402C21.2006 7.39502 21.4638 7.61581 21.6486 7.89854C21.8335 8.18126 21.9318 8.51326 21.9311 8.85266C21.9307 9.07921 21.8861 9.30344 21.8 9.51243C21.7139 9.72143 21.588 9.91107 21.4295 10.0704C21.2709 10.2298 21.0829 10.3558 20.8763 10.4411C20.6696 10.5264 20.4484 10.5693 20.2254 10.5675Z" fill="#1C1C1C"/>
</svg>
