<svg width="120" height="40" viewBox="0 0 120 40" fill="none" xmlns="http://www.w3.org/2000/svg">
<path d="M66.4888 20.0302H55.9792C55.6349 20.0302 55.3046 19.8912 55.0611 19.6439C54.8176 19.3966 54.6808 19.0611 54.6808 18.7114C54.6808 18.3616 54.8176 18.0262 55.0611 17.7788C55.3046 17.5315 55.6349 17.3926 55.9792 17.3926H66.4888C66.8331 17.3926 67.1634 17.5315 67.4069 17.7788C67.6504 18.0262 67.7872 18.3616 67.7872 18.7114C67.7872 19.0611 67.6504 19.3966 67.4069 19.6439C67.1634 19.8912 66.8331 20.0302 66.4888 20.0302Z" fill="#1C1C1C"/>
<path d="M62.2919 13.7689H60.1858C59.8414 13.7689 59.5111 13.63 59.2676 13.3827C59.0241 13.1354 58.8873 12.7999 58.8873 12.4501C58.8873 12.1004 59.0241 11.7649 59.2676 11.5176C59.5111 11.2703 59.8414 11.1313 60.1858 11.1313H62.2919C62.6362 11.1313 62.9665 11.2703 63.21 11.5176C63.4535 11.7649 63.5903 12.1004 63.5903 12.4501C63.5903 12.7999 63.4535 13.1354 63.21 13.3827C62.9665 13.63 62.6362 13.7689 62.2919 13.7689Z" fill="#1C1C1C"/>
<path d="M70.7015 22.8924H49.3761C49.485 22.6242 49.5678 22.346 49.6233 22.0615C49.8329 21.0834 49.6934 20.0615 49.2299 19.1781C48.7663 18.2948 48.0088 17.6075 47.0925 17.2389L35.4481 12.3137C35.2884 12.2324 35.1139 12.1854 34.9355 12.1757C34.7571 12.166 34.5787 12.1938 34.4113 12.2574C34.244 12.321 34.0914 12.4189 33.963 12.5451C33.8346 12.6714 33.7333 12.8231 33.6653 12.9909C33.5974 13.1588 33.5642 13.339 33.568 13.5204C33.5718 13.7018 33.6124 13.8805 33.6872 14.0453C33.7621 14.21 33.8696 14.3573 34.0031 14.4779C34.1366 14.5985 34.2932 14.6899 34.463 14.7462L34.7484 14.8664C34.0397 15.1979 33.4084 15.6786 32.8965 16.2767C32.3846 16.8748 32.0037 17.5766 31.7792 18.3356C31.5547 19.0946 31.4917 19.8934 31.5943 20.679C31.6969 21.4646 31.9628 22.2191 32.3743 22.8924H30.7382C29.9703 22.8877 29.2354 22.5746 28.6941 22.0214C28.1527 21.4683 27.8488 20.72 27.8488 19.9401V17.8187C27.8488 17.6455 27.8153 17.474 27.75 17.314C27.6848 17.154 27.5891 17.0086 27.4685 16.8862C27.348 16.7637 27.2048 16.6666 27.0473 16.6003C26.8898 16.534 26.7209 16.4999 26.5504 16.4999C26.3799 16.4999 26.211 16.534 26.0535 16.6003C25.896 16.6666 25.7528 16.7637 25.6322 16.8862C25.5117 17.0086 25.416 17.154 25.3508 17.314C25.2855 17.474 25.2519 17.6455 25.2519 17.8187V25.4628C25.2515 26.2484 25.0974 27.0262 24.7986 27.7509C24.4998 28.4756 24.0623 29.1328 23.5114 29.6843C23.3902 29.8066 23.294 29.9519 23.2282 30.112C23.1625 30.272 23.1284 30.4437 23.1281 30.6171C23.1277 30.7906 23.161 30.9624 23.2261 31.1227C23.2912 31.2831 23.3869 31.4288 23.5075 31.5516C23.6281 31.6743 23.7714 31.7717 23.9292 31.8381C24.0869 31.9046 24.256 31.9387 24.4268 31.9387C24.5976 31.9387 24.7666 31.9044 24.9244 31.8379C25.0821 31.7714 25.2253 31.674 25.3459 31.5512C26.1394 30.7553 26.7693 29.8073 27.199 28.7621C27.6286 27.7169 27.8495 26.5954 27.8488 25.4628V24.6849C28.7193 25.2378 29.7254 25.5306 30.7521 25.53H70.7015C71.0459 25.53 71.3761 25.391 71.6196 25.1437C71.8632 24.8964 72 24.5609 72 24.2112C72 23.8614 71.8632 23.5259 71.6196 23.2786C71.3761 23.0313 71.0459 22.8924 70.7015 22.8924ZM37.0529 22.8924C36.4772 22.8931 35.9142 22.7203 35.4352 22.3959C34.9561 22.0716 34.5826 21.6102 34.3618 21.0701C34.141 20.5301 34.0828 19.9357 34.1947 19.3621C34.3066 18.7885 34.5835 18.2615 34.9904 17.8477C35.3973 17.434 35.9158 17.1521 36.4804 17.0378C37.045 16.9235 37.6304 16.9818 38.1624 17.2054C38.6943 17.429 39.149 17.8079 39.469 18.294C39.7889 18.7802 39.9597 19.3518 39.9597 19.9366C39.9597 20.7199 39.6535 21.4712 39.1085 22.0254C38.5635 22.5796 37.8242 22.8914 37.0529 22.8924ZM45.4599 22.8924H41.7246C42.1648 22.1747 42.4389 21.3649 42.5263 20.5241C42.6137 19.6832 42.5122 18.8332 42.2294 18.0379L46.0934 19.6785C46.4454 19.8265 46.7359 20.0939 46.9155 20.4352C47.0951 20.7764 47.1526 21.1703 47.0783 21.5498C47.004 21.9293 46.8024 22.2708 46.5079 22.5163C46.2135 22.7617 45.8443 22.8959 45.4633 22.8959L45.4599 22.8924Z" fill="#1C1C1C"/>
<path d="M4.74489 25.5907H1.29858C0.954209 25.5907 0.62394 25.4518 0.380432 25.2045C0.136924 24.9571 0.00012207 24.6217 0.00012207 24.2719C0.00012207 23.9222 0.136924 23.5867 0.380432 23.3394C0.62394 23.0921 0.954209 22.9531 1.29858 22.9531H4.74489C5.26284 22.9532 5.76591 22.7772 6.17386 22.4531C6.58181 22.1289 6.87116 21.6754 6.99574 21.1648C7.12032 20.6542 7.07297 20.1159 6.86124 19.6358C6.64951 19.1557 6.28559 18.7614 5.82752 18.5159L2.78502 16.9142C2.6288 16.8368 2.48947 16.7284 2.3753 16.5953C2.26112 16.4622 2.17441 16.3071 2.12032 16.1394C2.06623 15.9716 2.04586 15.7945 2.0604 15.6186C2.07495 15.4427 2.12413 15.2715 2.20501 15.1152C2.2859 14.959 2.39685 14.8208 2.53129 14.7089C2.66573 14.597 2.82092 14.5137 2.98766 14.4638C3.1544 14.414 3.3293 14.3986 3.50199 14.4187C3.67468 14.4388 3.84164 14.4939 3.99297 14.5807L7.02155 16.2C7.9928 16.7202 8.76461 17.5557 9.21391 18.5732C9.66321 19.5908 9.76411 20.7319 9.50054 21.8145C9.23697 22.897 8.6241 23.8588 7.75966 24.5465C6.89521 25.2341 5.82898 25.6079 4.73097 25.6084L4.74489 25.5907Z" fill="#1C1C1C"/>
<path d="M17.9338 31.9995C17.7477 32 17.5634 31.9703 17.3916 31.9123C17.2197 31.8542 17.0637 31.7689 16.9326 31.6612C16.8005 31.5537 16.6956 31.426 16.6241 31.2854C16.5526 31.1448 16.5157 30.994 16.5157 30.8418C16.5157 30.6896 16.5526 30.5389 16.6241 30.3983C16.6956 30.2577 16.8005 30.13 16.9326 30.0224C17.5338 29.5346 18.0098 28.954 18.3327 28.3145C18.6556 27.675 18.8189 26.9895 18.8132 26.298V19.5908C18.8132 19.2838 18.9628 18.9893 19.2291 18.7722C19.4954 18.5551 19.8565 18.4331 20.2331 18.4331C20.6097 18.4331 20.9709 18.5551 21.2372 18.7722C21.5035 18.9893 21.6531 19.2838 21.6531 19.5908V26.3135C21.6569 27.3069 21.419 28.2911 20.9531 29.2091C20.4872 30.127 19.8025 30.9605 18.9388 31.6612C18.807 31.7689 18.6503 31.8543 18.4778 31.9124C18.3053 31.9704 18.1204 32.0001 17.9338 31.9995Z" fill="#1C1C1C"/>
<path d="M13.9243 25.5898C13.5799 25.5898 13.2497 25.4509 13.0062 25.2036C12.7627 24.9563 12.6259 24.6208 12.6259 24.271V9.3188C12.6259 8.96903 12.7627 8.63359 13.0062 8.38627C13.2497 8.13894 13.5799 8 13.9243 8C14.2687 8 14.599 8.13894 14.8425 8.38627C15.086 8.63359 15.2228 8.96903 15.2228 9.3188V24.271C15.2228 24.6208 15.086 24.9563 14.8425 25.2036C14.599 25.4509 14.2687 25.5898 13.9243 25.5898Z" fill="#1C1C1C"/>
<path d="M20.2254 14.5679C19.8912 14.5651 19.5654 14.4619 19.2889 14.2712C19.0125 14.0806 18.7978 13.8111 18.672 13.4966C18.5462 13.1822 18.5148 12.837 18.582 12.5045C18.6491 12.172 18.8117 11.8672 19.0492 11.6284C19.2867 11.3897 19.5885 11.2277 19.9165 11.1629C20.2445 11.0982 20.5841 11.1335 20.8923 11.2645C21.2006 11.3955 21.4638 11.6163 21.6486 11.899C21.8335 12.1818 21.9318 12.5138 21.9311 12.8532C21.9307 13.0797 21.8861 13.3039 21.8 13.5129C21.7139 13.7219 21.588 13.9116 21.4295 14.0709C21.2709 14.2303 21.0829 14.3563 20.8763 14.4416C20.6696 14.5269 20.4484 14.5698 20.2254 14.5679Z" fill="#1C1C1C"/>
<path d="M30.6515 33.2124L30.4136 33.3364C30.4585 33.4246 30.5061 33.5548 30.5581 33.7259C30.6092 33.8971 30.6365 34.0299 30.6391 34.1233C30.6418 34.2639 30.5775 34.367 30.4453 34.4316C30.3132 34.4962 30.0939 34.5286 29.7873 34.5286H29.531C29.5195 34.3757 29.4905 34.2185 29.4429 34.0587C29.3803 33.8473 29.2887 33.67 29.1698 33.5268C29.05 33.3836 28.9091 33.3111 28.7479 33.3111C28.606 33.3111 28.4766 33.3801 28.3594 33.5181C28.2422 33.6561 28.1647 33.8194 28.126 34.0063C28.0872 34.1941 28.1022 34.3556 28.1718 34.491C28.2273 34.5984 28.3215 34.677 28.4537 34.7251C28.5858 34.7731 28.7285 34.8028 28.8818 34.8124C28.9954 34.8194 29.1328 34.8229 29.2931 34.8237C29.2746 34.9434 29.2306 35.0526 29.1592 35.1521C29.0632 35.2858 28.9188 35.401 28.7267 35.498C28.5347 35.5949 28.2925 35.6744 28 35.7382L28.0793 35.9993C28.3858 35.9382 28.6474 35.8465 28.8668 35.7216C29.0852 35.5975 29.2517 35.4465 29.3654 35.27C29.4535 35.1338 29.5072 34.9836 29.5274 34.8211C29.5733 34.8203 29.6261 34.8194 29.6869 34.8194H29.8164C30.1784 34.8194 30.448 34.7617 30.6268 34.6456C30.8056 34.5294 30.8955 34.3574 30.8981 34.1277C30.9007 33.9976 30.8743 33.8421 30.8188 33.6596C30.7633 33.477 30.7078 33.3286 30.6515 33.2124ZM28.7681 34.4997C28.5673 34.4779 28.4396 34.4211 28.3841 34.3303C28.3365 34.2561 28.3259 34.1591 28.3524 34.0403C28.3788 33.9216 28.4299 33.8176 28.5047 33.7277C28.5796 33.6377 28.658 33.5958 28.7382 33.601C28.858 33.6063 28.9602 33.6657 29.0447 33.7792C29.1293 33.8927 29.1936 34.0334 29.2368 34.201C29.2649 34.312 29.2834 34.4203 29.2931 34.5277C29.0897 34.5251 28.9144 34.5155 28.7672 34.4989L28.7681 34.4997Z" fill="#1C1C1C"/>
<path d="M30.0236 32.9232C30.0791 32.8708 30.1205 32.8297 30.1469 32.8009C30.1734 32.7721 30.2156 32.7302 30.2747 32.6743C30.2192 32.6193 30.1769 32.5773 30.1496 32.5503C30.1214 32.5223 30.08 32.4795 30.0245 32.4219C29.9769 32.469 29.9346 32.511 29.8968 32.5485C29.8589 32.5861 29.8184 32.628 29.7734 32.6752C29.8263 32.7276 29.8668 32.7686 29.895 32.7974C29.9232 32.8262 29.9664 32.8682 30.0245 32.9241L30.0236 32.9232Z" fill="#1C1C1C"/>
<path d="M30.8388 32.5503C30.8106 32.5223 30.7692 32.4795 30.7137 32.4219C30.6661 32.469 30.6238 32.511 30.586 32.5485C30.5481 32.5861 30.5076 32.628 30.4626 32.6752C30.5155 32.7276 30.556 32.7686 30.5842 32.7974C30.6124 32.8262 30.6556 32.8682 30.7137 32.9241C30.7692 32.8717 30.8106 32.8306 30.837 32.8018C30.8634 32.773 30.9057 32.731 30.9648 32.6752C30.9093 32.6201 30.867 32.5782 30.8397 32.5511L30.8388 32.5503Z" fill="#1C1C1C"/>
<path d="M40.2489 32.6121L40.3617 32.5004C40.3864 32.4759 40.4242 32.4366 40.4744 32.3842C40.4242 32.3344 40.3864 32.2969 40.3617 32.2724C40.337 32.248 40.2992 32.2087 40.2489 32.1562C40.2014 32.2034 40.1644 32.241 40.1362 32.2698C40.108 32.2986 40.071 32.337 40.0234 32.3833C40.0736 32.4331 40.1115 32.4707 40.1362 32.4951C40.1609 32.5196 40.1987 32.5589 40.2489 32.6113V32.6121Z" fill="#1C1C1C"/>
<path d="M39.7538 32.9432C39.7917 32.9816 39.8322 33.0236 39.8771 33.0672C39.93 33.0174 39.9723 32.9773 40.0048 32.945C40.0366 32.9135 40.0797 32.8707 40.1326 32.8183C40.0771 32.7633 40.0348 32.7214 40.0075 32.6943C39.9793 32.6664 39.9361 32.6236 39.878 32.5659C39.8225 32.6209 39.7811 32.6629 39.7547 32.6926C39.7283 32.7214 39.686 32.7633 39.627 32.8192C39.6745 32.8637 39.7168 32.9048 39.7547 32.9432H39.7538Z" fill="#1C1C1C"/>
<path d="M41.0308 33.2167L40.7929 33.3408C40.837 33.4377 40.8863 33.5696 40.9391 33.7381C40.992 33.9067 41.0184 34.0421 41.0184 34.1442C41.0184 34.2656 40.9894 34.36 40.9303 34.4281C40.8722 34.4953 40.7868 34.5285 40.6731 34.5294C40.5516 34.5294 40.4626 34.4936 40.4062 34.4237C40.349 34.353 40.3208 34.2464 40.3208 34.1032C40.3208 34.0456 40.3252 33.9827 40.3357 33.9146C40.3454 33.8473 40.356 33.7853 40.3675 33.7303L40.3754 33.6761L40.1331 33.6595V33.6656C40.1331 33.6656 40.1314 33.6709 40.1287 33.6761C40.1094 33.7836 40.0873 33.8849 40.0618 33.9801C40.0371 34.0753 40.0072 34.1547 39.9737 34.2185C39.912 34.318 39.8477 34.394 39.7799 34.4482C39.7121 34.5023 39.6346 34.5285 39.5482 34.5285H39.5403C39.4487 34.5285 39.38 34.5006 39.3359 34.4438C39.291 34.387 39.2708 34.3067 39.2734 34.2019C39.2734 34.1381 39.2813 34.0718 39.2963 34.001C39.3113 33.9303 39.3289 33.8578 39.3483 33.7836C39.3509 33.7696 39.3553 33.753 39.3606 33.7338L39.114 33.7093C39.1113 33.7172 39.1069 33.7277 39.1016 33.7381C39.077 33.8377 39.047 33.9294 39.0135 34.0132C38.9801 34.0971 38.9387 34.1757 38.8885 34.2473C38.833 34.3329 38.7581 34.401 38.6647 34.4525C38.5722 34.5032 38.4727 34.5285 38.3661 34.5285C38.1591 34.5285 37.9759 34.5154 37.8173 34.4918C37.7539 34.4822 37.6931 34.4691 37.6332 34.4543C37.6446 34.4421 37.6587 34.4316 37.6693 34.4194C37.7838 34.2884 37.8402 34.1329 37.8402 33.9539C37.8402 33.7914 37.7891 33.6316 37.6878 33.4753C37.5865 33.3189 37.4491 33.194 37.2764 33.1006L37.0509 33.1836C36.9981 33.2604 36.9417 33.367 36.8818 33.5023C36.8219 33.6377 36.7682 33.7993 36.7206 33.987C36.6774 34.1582 36.6528 34.3381 36.644 34.5259C36.5946 34.5285 36.5435 34.5294 36.4907 34.5294H32.9998C32.8888 34.5268 32.8024 34.4892 32.7408 34.4176C32.6818 34.3486 32.6315 34.2307 32.591 34.0656C32.562 33.9408 32.5311 33.8176 32.4941 33.6971L32.2396 33.7879C32.2977 34.0115 32.3479 34.222 32.3902 34.4194C32.4316 34.6167 32.4527 34.7565 32.4527 34.8394C32.4527 34.9469 32.4104 35.0604 32.325 35.1792C32.2404 35.298 32.125 35.4071 31.9806 35.5084C31.8361 35.6089 31.674 35.6875 31.4961 35.7425L31.6009 35.9993C31.807 35.9329 31.9938 35.8394 32.1629 35.718C32.3312 35.5966 32.4642 35.4595 32.562 35.3058C32.6597 35.153 32.7082 34.9975 32.7082 34.8403C32.7082 34.808 32.7064 34.7713 32.7038 34.7329C32.7769 34.787 32.8694 34.815 32.9795 34.8185L33.0006 34.8194H36.4414C36.5136 34.8194 36.5832 34.8167 36.651 34.8124C36.6748 35.0534 36.7426 35.2552 36.8571 35.415C37.006 35.6246 37.1839 35.7495 37.3892 35.7897C37.5953 35.8298 37.7653 35.7862 37.8983 35.6595C38.0093 35.5547 38.0569 35.4202 38.0402 35.256C38.0234 35.0918 37.953 34.9329 37.8296 34.7801C37.8261 34.7757 37.8217 34.7722 37.8182 34.767H37.8191C37.975 34.7993 38.1494 34.8159 38.3405 34.8185L38.3573 34.8194C38.359 34.8194 38.3617 34.8194 38.3634 34.8194C38.3696 34.8194 38.3758 34.8194 38.3819 34.8194V34.8176C38.5194 34.8132 38.6462 34.7766 38.7598 34.7058C38.8805 34.6298 38.9845 34.5189 39.0708 34.3722C39.0822 34.5102 39.1289 34.6194 39.2126 34.6997C39.2963 34.7801 39.4029 34.8202 39.5341 34.8202H39.5421C39.6363 34.8202 39.7271 34.794 39.8134 34.7416C39.8997 34.6892 39.9746 34.6194 40.0371 34.5329C40.0785 34.4753 40.112 34.4141 40.1393 34.3504C40.1613 34.4814 40.208 34.5888 40.2829 34.67C40.3736 34.7678 40.5005 34.8176 40.6608 34.8202L40.6687 34.8211C40.6687 34.8211 40.6705 34.8211 40.6714 34.8211C40.6714 34.8211 40.6722 34.8211 40.6731 34.8211H40.6819C40.7938 34.8185 40.8933 34.7897 40.9805 34.7338C41.0713 34.6761 41.1418 34.5958 41.1937 34.4936C41.2448 34.3914 41.2712 34.2753 41.2712 34.146C41.2712 34.008 41.2448 33.8482 41.192 33.6656C41.1391 33.4831 41.0845 33.3346 41.029 33.2185L41.0308 33.2167ZM36.9928 33.8997C37.0624 33.6709 37.1373 33.4953 37.2183 33.3739C37.3381 33.4482 37.4332 33.539 37.5046 33.6447C37.5759 33.7512 37.6085 33.8534 37.6024 33.953C37.5971 34.0718 37.5504 34.1748 37.4649 34.2613C37.3786 34.3486 37.2535 34.4141 37.0888 34.4604C37.028 34.477 36.962 34.4901 36.8915 34.5006C36.8994 34.3006 36.932 34.0997 36.9928 33.8997ZM37.7442 35.456C37.6552 35.539 37.5407 35.5573 37.4015 35.5119C37.2623 35.4665 37.1408 35.3626 37.0386 35.201C36.9637 35.084 36.9179 34.9442 36.8994 34.7818C36.9998 34.7652 37.095 34.7442 37.1831 34.7163C37.2456 34.6962 37.3029 34.6726 37.3566 34.6464C37.4632 34.7172 37.5548 34.7993 37.6297 34.8962C37.7178 35.0097 37.7715 35.118 37.7926 35.2211C37.8138 35.325 37.797 35.4028 37.7451 35.4552L37.7442 35.456Z" fill="#1C1C1C"/>
<path d="M40.3672 32.8192C40.4148 32.8637 40.457 32.9048 40.4949 32.9432C40.5328 32.9816 40.5733 33.0236 40.6182 33.0672C40.6711 33.0174 40.7134 32.9773 40.746 32.945L40.8737 32.8183C40.8182 32.7633 40.7759 32.7214 40.7486 32.6943C40.7204 32.6664 40.6773 32.6236 40.6191 32.5659C40.5636 32.6209 40.5222 32.6629 40.4958 32.6926C40.4694 32.7214 40.4271 32.7633 40.3681 32.8192H40.3672Z" fill="#1C1C1C"/>
<path d="M47.0892 33.0446C47.1182 33.0734 47.1623 33.1171 47.2204 33.1747C47.2786 33.1197 47.3226 33.0778 47.3517 33.0481C47.3807 33.0193 47.4248 32.9747 47.4829 32.9136C47.4353 32.8664 47.3913 32.8236 47.3517 32.7834C47.3111 32.7433 47.2671 32.6996 47.2204 32.6533C47.1728 32.7005 47.1297 32.7441 47.0909 32.7834C47.0522 32.8236 47.0072 32.8673 46.957 32.9136C47.0152 32.9712 47.0592 33.0149 47.0883 33.0437L47.0892 33.0446Z" fill="#1C1C1C"/>
<path d="M52.5254 32.8192C52.573 32.8637 52.6152 32.9048 52.6531 32.9432C52.691 32.9816 52.7315 33.0236 52.7764 33.0672C52.8293 33.0174 52.8716 32.9773 52.9042 32.945L53.0319 32.8183C52.9764 32.7633 52.9341 32.7214 52.9068 32.6943C52.8786 32.6664 52.8355 32.6236 52.7773 32.5659C52.7218 32.6209 52.6804 32.6629 52.654 32.6926C52.6276 32.7214 52.5853 32.7633 52.5263 32.8192H52.5254Z" fill="#1C1C1C"/>
<path d="M53.1884 33.2167L52.9506 33.3407C52.9946 33.4377 53.044 33.5695 53.0968 33.7381C53.1497 33.9067 53.1761 34.042 53.1761 34.1442C53.1761 34.2656 53.147 34.3599 53.088 34.4281C53.0299 34.4953 52.9444 34.5285 52.8308 34.5294C52.7092 34.5294 52.6203 34.4936 52.5639 34.4237C52.5066 34.3529 52.4784 34.2464 52.4784 34.1032C52.4784 34.0455 52.4828 33.9826 52.4934 33.9145C52.5031 33.8473 52.5137 33.7853 52.5251 33.7302L52.5331 33.6761L52.2908 33.6595V33.6656C52.2908 33.6656 52.2891 33.6709 52.2864 33.6761C52.267 33.7835 52.245 33.8848 52.2195 33.98C52.1948 34.0752 52.1648 34.1547 52.1314 34.2184C52.0697 34.318 52.0054 34.394 51.9376 34.4481C51.8697 34.5023 51.7922 34.5285 51.7059 34.5285H51.698C51.6064 34.5285 51.5377 34.5005 51.4936 34.4438C51.4487 34.387 51.4284 34.3067 51.4311 34.2019C51.4311 34.1381 51.439 34.0717 51.454 34.001C51.4689 33.9302 51.4866 33.8578 51.5059 33.7835C51.5086 33.7695 51.513 33.7529 51.5183 33.7337L51.2716 33.7093C51.269 33.7171 51.2646 33.7276 51.2593 33.7381C51.2346 33.8377 51.2047 33.9294 51.1712 34.0132C51.1377 34.0971 51.0963 34.1757 51.0461 34.2473C50.9906 34.3329 50.9157 34.401 50.8224 34.4525C50.729 34.5032 50.6286 34.5294 50.5194 34.5294H50.5026C50.4022 34.5294 50.3256 34.4874 50.2727 34.4027C50.2199 34.3189 50.174 34.187 50.1353 34.0071C50.0939 33.808 50.0208 33.6473 49.9186 33.525C49.8155 33.4019 49.6816 33.3433 49.5178 33.3495C49.4235 33.3547 49.3337 33.3896 49.2509 33.4534C49.1672 33.5171 49.0923 33.5966 49.0254 33.6936C48.9584 33.7905 48.8844 33.9102 48.8043 34.0534L48.7541 34.1486C48.6871 34.2726 48.6052 34.3669 48.5074 34.4324C48.4096 34.4971 48.3031 34.5294 48.1859 34.5294H48.1066C47.9956 34.5294 47.9031 34.5014 47.8309 34.4464C47.7587 34.3914 47.7137 34.311 47.697 34.2062C47.6997 33.9521 47.6829 33.7285 47.6468 33.5355L47.4046 33.5853C47.4098 33.6158 47.4142 33.649 47.4169 33.6848C47.4336 33.8281 47.4433 33.9468 47.446 34.0412C47.4486 34.1346 47.4372 34.2097 47.4125 34.2647C47.3676 34.3556 47.2909 34.4228 47.1808 34.4656C47.0707 34.5084 46.9174 34.5294 46.7192 34.5294H44.2017C44.0766 34.5294 43.9762 34.5005 43.9013 34.442C43.8264 34.3844 43.7595 34.2848 43.7004 34.1442L43.1288 32.8027L42.8909 32.9224L43.4714 34.2717C43.4793 34.2892 43.4882 34.3049 43.4961 34.3215C43.4089 34.3783 43.3181 34.4298 43.223 34.4708C43.1015 34.5233 42.9596 34.5495 42.7949 34.5495C42.6469 34.5495 42.5218 34.5302 42.417 34.4918C42.3122 34.4534 42.2144 34.4062 42.1228 34.3512L42.1061 34.339L41.9766 34.5538C42.077 34.6281 42.1933 34.6936 42.3254 34.7486C42.4575 34.8036 42.6196 34.8315 42.8116 34.8315C42.9508 34.8315 43.0759 34.8132 43.1878 34.7757C43.2988 34.7381 43.3921 34.6953 43.4679 34.6455C43.5181 34.6123 43.5701 34.5739 43.6212 34.5329C43.6687 34.5957 43.7198 34.6481 43.7744 34.6892C43.8925 34.7765 44.0352 34.8193 44.2026 34.8193H46.7333C46.9835 34.8176 47.1799 34.7844 47.3218 34.718C47.4292 34.6674 47.5103 34.5922 47.564 34.4918C47.601 34.5757 47.6556 34.6455 47.7287 34.7014C47.8318 34.7791 47.9569 34.8184 48.1022 34.8193H48.1066H48.178C48.3119 34.8193 48.4352 34.7905 48.5497 34.732C48.6642 34.6735 48.7611 34.5896 48.8422 34.4796C49.3266 34.7914 49.6623 34.8988 49.8481 34.8027C49.9089 34.7722 49.9626 34.7285 50.0093 34.67C50.0551 34.6123 50.0842 34.5468 50.0948 34.4752C50.123 34.5774 50.1688 34.6604 50.2322 34.7232C50.2956 34.7861 50.3846 34.8176 50.4991 34.8184H50.5035H50.537V34.8167C50.6762 34.8132 50.8039 34.7765 50.9193 34.704C51.04 34.6281 51.1439 34.5171 51.2302 34.3704C51.2417 34.5084 51.2884 34.6176 51.3721 34.6979C51.4557 34.7783 51.5623 34.8184 51.6936 34.8184H51.7015C51.7958 34.8184 51.8865 34.7922 51.9728 34.7398C52.0591 34.6874 52.134 34.6176 52.1966 34.5311C52.238 34.4735 52.2714 34.4123 52.2987 34.3486C52.3208 34.4796 52.3674 34.587 52.4423 34.6682C52.5331 34.766 52.6599 34.8158 52.8202 34.8184L52.8281 34.8193C52.8281 34.8193 52.8299 34.8193 52.8308 34.8193C52.8308 34.8193 52.8317 34.8193 52.8325 34.8193H52.8414C52.9532 34.8167 53.0528 34.7879 53.14 34.732C53.2307 34.6743 53.3012 34.594 53.3532 34.4918C53.4042 34.3896 53.4307 34.2735 53.4307 34.1442C53.4307 34.0062 53.4042 33.8464 53.3514 33.6639C53.2985 33.4813 53.2439 33.3329 53.1884 33.2167ZM49.8649 34.5005C49.8481 34.5285 49.8287 34.5503 49.8067 34.5669C49.768 34.5809 49.7081 34.5791 49.627 34.5626C49.546 34.546 49.45 34.511 49.339 34.4569C49.228 34.4027 49.1064 34.3337 48.9761 34.2481L49.0139 34.1695C49.0809 34.0508 49.1408 33.9538 49.1936 33.8778C49.2465 33.8019 49.302 33.7407 49.361 33.6936C49.4191 33.6464 49.4782 33.6228 49.5363 33.6228C49.642 33.6228 49.7301 33.677 49.8014 33.7861C49.8728 33.8953 49.9151 34.0211 49.9292 34.1626C49.9433 34.3049 49.9221 34.4176 49.8666 34.4997L49.8649 34.5005Z" fill="#1C1C1C"/>
<path d="M51.914 32.9432C51.9518 32.9816 51.9924 33.0236 52.0373 33.0672C52.0901 33.0174 52.1324 32.9773 52.165 32.945C52.1967 32.9135 52.2399 32.8707 52.2927 32.8183C52.2372 32.7633 52.195 32.7214 52.1677 32.6943C52.1395 32.6664 52.0963 32.6236 52.0382 32.5659C51.9827 32.6209 51.9413 32.6629 51.9148 32.6926C51.8884 32.7214 51.8461 32.7633 51.7871 32.8192C51.8347 32.8637 51.877 32.9048 51.9148 32.9432H51.914Z" fill="#1C1C1C"/>
<path d="M52.4073 32.6121L52.52 32.5004C52.5447 32.4759 52.5826 32.4366 52.6328 32.3842C52.5826 32.3344 52.5447 32.2969 52.52 32.2724C52.4954 32.248 52.4575 32.2087 52.4073 32.1562C52.3597 32.2034 52.3227 32.241 52.2945 32.2698C52.2663 32.2986 52.2293 32.337 52.1818 32.3833C52.232 32.4331 52.2698 32.4707 52.2945 32.4951C52.3192 32.5196 52.3571 32.5589 52.4073 32.6113V32.6121Z" fill="#1C1C1C"/>
<path d="M57.1055 33.4774C56.8297 33.3115 56.421 33.1412 55.8775 32.9639L55.7815 33.2372C55.8379 33.2529 55.8934 33.2687 55.9471 33.2844C55.8581 33.3508 55.7806 33.4337 55.7172 33.5368C55.6405 33.6599 55.5956 33.7901 55.5815 33.9281C55.5621 34.1429 55.6687 34.3307 55.8978 34.4914C55.7269 34.5158 55.526 34.5289 55.2935 34.5289H55.1288C55.1173 34.3761 55.0882 34.2189 55.0407 34.0591C54.9781 33.8477 54.8865 33.6704 54.7676 33.5272C54.6478 33.384 54.5069 33.3115 54.3457 33.3115C54.2038 33.3115 54.0743 33.3805 53.9572 33.5185C53.84 33.6564 53.7625 33.8198 53.7237 34.0067C53.685 34.1944 53.7 34.356 53.7696 34.4914C53.825 34.5988 53.9193 34.6774 54.0514 34.7254C54.1836 34.7735 54.3263 34.8032 54.4795 34.8128C54.5932 34.8198 54.7306 34.8232 54.8909 34.8241C54.8724 34.9438 54.8284 35.0529 54.757 35.1525C54.661 35.2861 54.5165 35.4014 54.3245 35.4984C54.1325 35.5953 53.8902 35.6748 53.5978 35.7385L53.6771 35.9997C53.9836 35.9385 54.2452 35.8468 54.4646 35.7219C54.683 35.5979 54.8495 35.4468 54.9631 35.2704C55.0512 35.1342 55.105 34.9839 55.1252 34.8215C55.171 34.8206 55.2239 34.8198 55.2847 34.8198H55.2935C55.6361 34.8198 55.9198 34.7918 56.1453 34.7368C56.1955 34.7246 56.2413 34.7097 56.2862 34.6949C56.5223 34.7857 56.7681 34.8276 57.0244 34.8198C57.3768 34.8084 57.5873 34.6861 57.6569 34.4512C57.7071 34.2748 57.6965 34.1097 57.6252 33.9569C57.5538 33.804 57.3812 33.6442 57.1055 33.4783V33.4774ZM54.3659 34.5001C54.1651 34.4783 54.0373 34.4215 53.9818 34.3307C53.9343 34.2564 53.9237 34.1595 53.9501 34.0407C53.9766 33.9219 54.0277 33.818 54.1025 33.7281C54.1774 33.6381 54.2558 33.5962 54.336 33.6014C54.4558 33.6067 54.5579 33.666 54.6425 33.7796C54.7271 33.8931 54.7914 34.0337 54.8345 34.2014C54.8627 34.3123 54.8812 34.4206 54.8909 34.5281C54.6874 34.5254 54.5121 34.5158 54.365 34.4992L54.3659 34.5001ZM56.1929 34.3569C55.9409 34.2285 55.8194 34.0826 55.8273 33.9202C55.8299 33.8346 55.8564 33.7516 55.9066 33.6722C55.9568 33.5918 56.0184 33.5289 56.0924 33.4818C56.1664 33.4346 56.2395 33.4154 56.3118 33.4241C56.3893 33.4329 56.4571 33.4634 56.5144 33.5176C56.5716 33.5717 56.613 33.639 56.6395 33.7202C56.6659 33.8014 56.6738 33.8853 56.6624 33.9708C56.6315 34.1612 56.5082 34.3019 56.2906 34.3936C56.2862 34.3953 56.2809 34.397 56.2765 34.3988C56.2484 34.3857 56.2202 34.3726 56.192 34.3586L56.1929 34.3569ZM57.4393 34.342C57.4005 34.4914 57.2455 34.563 56.976 34.5569C56.8553 34.5543 56.7372 34.5394 56.6201 34.5123C56.6359 34.4992 56.6544 34.4861 56.6694 34.4722C56.7936 34.3525 56.8694 34.1953 56.8967 34.0023C56.9125 33.8791 56.8993 33.7595 56.8614 33.6416C57.0826 33.7612 57.2402 33.8774 57.3336 33.9927C57.4349 34.1184 57.471 34.2346 57.4402 34.3429L57.4393 34.342Z" fill="#1C1C1C"/>
<path d="M59.2794 33.6973L59.0248 33.7881C59.083 34.0117 59.1332 34.2222 59.1755 34.4195C59.2169 34.6169 59.238 34.7567 59.238 34.8396C59.238 34.947 59.1957 35.0606 59.1103 35.1794C59.0257 35.2981 58.9103 35.4073 58.7659 35.5086C58.6214 35.609 58.4593 35.6877 58.2814 35.7427L58.3862 35.9994C58.5923 35.9331 58.7791 35.8396 58.9482 35.7182C59.1164 35.5968 59.2495 35.4597 59.3472 35.306C59.445 35.1532 59.4935 34.9977 59.4935 34.8405C59.4935 34.7139 59.4732 34.5427 59.4327 34.327C59.3922 34.1112 59.3411 33.9016 59.2803 33.6973H59.2794Z" fill="#1C1C1C"/>
<path d="M60.7961 35.3613C60.7679 35.3333 60.7265 35.2906 60.671 35.2329L60.5432 35.3595C60.5054 35.3971 60.4648 35.439 60.4199 35.4862C60.4728 35.5386 60.5133 35.5796 60.5406 35.6085C60.5688 35.6373 60.612 35.6792 60.6701 35.7351C60.7256 35.6827 60.767 35.6416 60.7934 35.6128C60.8198 35.584 60.8621 35.5421 60.9211 35.4862L60.7961 35.3622V35.3613Z" fill="#1C1C1C"/>
<path d="M61.4836 35.3613C61.4554 35.3333 61.414 35.2906 61.3585 35.2329C61.3109 35.2801 61.2686 35.322 61.2307 35.3595C61.1929 35.3971 61.1523 35.439 61.1074 35.4862C61.1603 35.5386 61.2008 35.5796 61.2281 35.6085C61.2563 35.6373 61.2995 35.6792 61.3576 35.7351C61.4131 35.6827 61.4545 35.6416 61.4809 35.6128C61.5073 35.584 61.5496 35.5421 61.6086 35.4862C61.5531 35.4312 61.5109 35.3892 61.4836 35.3622V35.3613Z" fill="#1C1C1C"/>
<path d="M66.6327 33.1712C66.6882 33.1188 66.7296 33.0778 66.7561 33.049C66.7825 33.0201 66.8248 32.9782 66.8838 32.9223C66.8283 32.8673 66.786 32.8254 66.7587 32.7983C66.7305 32.7704 66.6891 32.7276 66.6336 32.6699C66.5861 32.7171 66.5438 32.759 66.5059 32.7966C66.468 32.8341 66.4275 32.876 66.3826 32.9232C66.4354 32.9756 66.4759 33.0166 66.5041 33.0455C66.5323 33.0743 66.5755 33.1162 66.6336 33.1721L66.6327 33.1712Z" fill="#1C1C1C"/>
<path d="M65.9435 33.1712C65.999 33.1188 66.0404 33.0778 66.0669 33.049C66.0933 33.0201 66.1356 32.9782 66.1946 32.9223C66.1391 32.8673 66.0968 32.8254 66.0695 32.7983C66.0413 32.7704 65.9999 32.7276 65.9444 32.6699L65.8167 32.7966C65.7788 32.8341 65.7383 32.876 65.6934 32.9232C65.7462 32.9756 65.7867 33.0166 65.814 33.0455C65.8422 33.0743 65.8854 33.1162 65.9435 33.1721V33.1712Z" fill="#1C1C1C"/>
<path d="M69.8682 33.2166L69.6304 33.3406C69.6744 33.4375 69.7238 33.5694 69.7766 33.738C69.8295 33.9065 69.8559 34.0419 69.8559 34.1441C69.8559 34.2655 69.8268 34.3598 69.7678 34.4279C69.7097 34.4952 69.6242 34.5284 69.5106 34.5292C69.389 34.5292 69.3001 34.4934 69.2437 34.4236C69.1864 34.3528 69.1582 34.2463 69.1582 34.103C69.1582 34.0454 69.1626 33.9825 69.1732 33.9144C69.1829 33.8472 69.1935 33.7851 69.2049 33.7301L69.2128 33.676L68.9706 33.6594V33.6655C68.9706 33.6655 68.9688 33.6707 68.9662 33.676C68.9468 33.7834 68.9248 33.8847 68.8993 33.9799C68.8746 34.0751 68.8446 34.1546 68.8112 34.2183C68.7495 34.3179 68.6852 34.3939 68.6174 34.448C68.5495 34.5022 68.472 34.5284 68.3857 34.5284H68.3778C68.2862 34.5284 68.2175 34.5004 68.1734 34.4437C68.1285 34.3869 68.1082 34.3065 68.1109 34.2017C68.1109 34.138 68.1188 34.0716 68.1338 34.0009C68.1487 33.9301 68.1664 33.8576 68.1857 33.7834C68.1884 33.7694 68.1928 33.7528 68.1981 33.7336L67.9514 33.7092C67.9488 33.717 67.9444 33.7275 67.9391 33.738C67.9144 33.8375 67.8845 33.9292 67.851 34.0131C67.8175 34.0969 67.7761 34.1755 67.7259 34.2472C67.6704 34.3327 67.5956 34.4009 67.5022 34.4524C67.4088 34.503 67.3084 34.5292 67.1992 34.5292H67.178C67.0635 34.5292 66.971 34.5013 66.9005 34.4463C66.8292 34.3913 66.786 34.3109 66.7693 34.2061C66.7719 33.9581 66.7552 33.7345 66.7191 33.5354L66.4724 33.5851L66.4768 33.6183C66.5015 33.7729 66.5165 33.9039 66.5209 34.0113C66.5253 34.1188 66.5129 34.2044 66.4856 34.2681C66.4522 34.3319 66.4072 34.3816 66.35 34.4192C66.2927 34.4568 66.2038 34.4838 66.0831 34.5022C65.9615 34.5205 65.7933 34.5292 65.5757 34.5292H62.2433C62.1288 34.5292 62.0363 34.5013 61.9658 34.4463C61.8945 34.3913 61.8513 34.3109 61.8346 34.2061C61.8372 33.9581 61.8205 33.7345 61.7844 33.5354L61.5377 33.5851L61.5421 33.6183C61.5668 33.7729 61.5818 33.9039 61.5862 34.0113C61.5906 34.1188 61.5782 34.2044 61.5509 34.2681C61.5175 34.3319 61.4725 34.3816 61.4153 34.4192C61.358 34.4568 61.2691 34.4838 61.1484 34.5022C61.0268 34.5205 60.8586 34.5292 60.641 34.5292H60.6287C60.478 34.5292 60.3688 34.5083 60.301 34.4655C60.2331 34.4227 60.19 34.3563 60.1732 34.2664C60.1565 34.1764 60.1512 34.0384 60.1565 33.8506C60.1618 33.6271 60.1583 33.2978 60.1442 32.8629C60.1301 32.4279 60.1125 32.1406 60.0896 32L59.8262 32.0541C59.8482 32.1948 59.8658 32.4716 59.8781 32.8838C59.8905 33.2969 59.8958 33.6271 59.8931 33.8751C59.8852 34.1039 59.901 34.2856 59.9416 34.4192C59.9821 34.5528 60.0561 34.6533 60.1627 34.7196C60.2657 34.7834 60.4146 34.8157 60.6075 34.8183L60.6287 34.8192H60.6498C60.8903 34.8192 61.085 34.8061 61.2321 34.7799C61.3809 34.7537 61.4954 34.7092 61.5765 34.6454C61.6293 34.6035 61.6707 34.5502 61.7016 34.4873C61.7377 34.5729 61.7923 34.6445 61.8681 34.7013C61.972 34.7782 62.0944 34.8175 62.2354 34.8183H62.2433H65.5836C65.8241 34.8183 66.0188 34.8052 66.1659 34.779C66.3147 34.7528 66.4293 34.7083 66.5103 34.6445C66.5632 34.6026 66.6046 34.5493 66.6354 34.4865C66.6715 34.572 66.7261 34.6437 66.8019 34.7004C66.9076 34.779 67.0327 34.8183 67.178 34.8183H67.2115C67.3524 34.814 67.481 34.7773 67.5973 34.7048C67.718 34.6288 67.8219 34.5179 67.9083 34.3712C67.9197 34.5092 67.9664 34.6183 68.0501 34.6987C68.1338 34.779 68.2404 34.8192 68.3716 34.8192H68.3795C68.4738 34.8192 68.5645 34.793 68.6508 34.7406C68.7372 34.6882 68.812 34.6183 68.8746 34.5319C68.916 34.4742 68.9495 34.4131 68.9768 34.3493C68.9988 34.4803 69.0455 34.5878 69.1204 34.669C69.2111 34.7668 69.3379 34.8166 69.4983 34.8192L69.5062 34.8201C69.5062 34.8201 69.5079 34.8201 69.5088 34.8201C69.5088 34.8201 69.5097 34.8201 69.5106 34.8201H69.5194C69.6313 34.8175 69.7308 34.7886 69.818 34.7327C69.9087 34.6751 69.9792 34.5947 70.0312 34.4926C70.0823 34.3904 70.1087 34.2742 70.1087 34.145C70.1087 34.007 70.0823 33.8472 70.0294 33.6646C69.9766 33.4821 69.922 33.3336 69.8665 33.2175L69.8682 33.2166Z" fill="#1C1C1C"/>
<path d="M71.9627 33.9705C71.9081 33.7879 71.8015 33.5993 71.6412 33.4036C71.4809 33.208 71.2774 33.0141 71.0298 32.8237L70.8792 33.0761C71.1074 33.2473 71.2915 33.4132 71.4306 33.5748C71.5698 33.7364 71.6641 33.8814 71.7125 34.0098C71.761 34.1381 71.7663 34.2438 71.7275 34.3268C71.6967 34.3879 71.6297 34.4403 71.5249 34.484C71.4201 34.5285 71.2879 34.5504 71.1259 34.5504C70.9638 34.5504 70.8246 34.5311 70.7145 34.4927C70.6044 34.4543 70.5066 34.4089 70.4203 34.3565L70.3912 34.3399L70.2617 34.5547C70.3454 34.6263 70.4599 34.691 70.6061 34.7469C70.7524 34.8036 70.9329 34.8316 71.147 34.8316C71.339 34.8316 71.5064 34.7993 71.65 34.7346C71.7936 34.67 71.8913 34.5783 71.9442 34.4595C72.0111 34.3163 72.0173 34.153 71.9627 33.9713V33.9705Z" fill="#1C1C1C"/>
<path d="M101.998 1.75847C101.998 2.04348 101.98 3.0391 101.98 3.31797V5.02343C101.98 5.93224 101.1 6.66667 100.014 6.66667H99.966C98.8787 6.66667 98 5.93147 98 5.02343V1.58792C98 0.710609 98.8493 0 99.8961 0H100.104C101.15 0 102 0.709841 102 1.58792V1.75847H101.998Z" fill="url(#paint0_linear_982_10790)"/>
<path d="M103.556 9.3335H96.4444C95.4626 9.3335 94.6666 10.2289 94.6666 11.3335C94.6666 12.4381 95.4626 13.3335 96.4444 13.3335H103.556C104.537 13.3335 105.333 12.4381 105.333 11.3335C105.333 10.2289 104.537 9.3335 103.556 9.3335Z" fill="url(#paint1_linear_982_10790)"/>
<path d="M108.889 16H91.1111C90.1293 16 89.3334 16.8954 89.3334 18C89.3334 19.1046 90.1293 20 91.1111 20H108.889C109.871 20 110.667 19.1046 110.667 18C110.667 16.8954 109.871 16 108.889 16Z" fill="url(#paint2_linear_982_10790)"/>
<path d="M116.97 22.6665H83.0303C82.0931 22.6665 81.3334 23.5619 81.3334 24.6665C81.3334 25.7711 82.0931 26.6665 83.0303 26.6665H116.97C117.907 26.6665 118.667 25.7711 118.667 24.6665C118.667 23.5619 117.907 22.6665 116.97 22.6665Z" fill="url(#paint3_linear_982_10790)"/>
<path d="M110.286 29.3335H89.7142C88.7675 29.3335 88 30.2289 88 31.3335C88 32.4381 88.7675 33.3335 89.7142 33.3335H110.286C111.233 33.3335 112 32.4381 112 31.3335C112 30.2289 111.233 29.3335 110.286 29.3335Z" fill="url(#paint4_linear_982_10790)"/>
<path d="M106.4 36H93.5999C92.7163 36 92 36.8954 92 38C92 39.1046 92.7163 40 93.5999 40H106.4C107.284 40 108 39.1046 108 38C108 36.8954 107.284 36 106.4 36Z" fill="url(#paint5_linear_982_10790)"/>
<defs>
<linearGradient id="paint0_linear_982_10790" x1="102" y1="3.33487" x2="98" y2="3.33487" gradientUnits="userSpaceOnUse">
<stop stop-color="#307FE2" stop-opacity="0"/>
<stop offset="0.1" stop-color="#307FE2" stop-opacity="0.16"/>
<stop offset="0.32" stop-color="#307FE2" stop-opacity="0.44"/>
<stop offset="0.56" stop-color="#307FE2" stop-opacity="0.68"/>
<stop offset="0.72" stop-color="#307FE2" stop-opacity="0.86"/>
<stop offset="0.88" stop-color="#307FE2" stop-opacity="0.96"/>
<stop offset="1" stop-color="#307FE2"/>
</linearGradient>
<linearGradient id="paint1_linear_982_10790" x1="105.333" y1="11.3344" x2="94.6666" y2="11.3344" gradientUnits="userSpaceOnUse">
<stop stop-color="#307FE2" stop-opacity="0"/>
<stop offset="0.1" stop-color="#307FE2" stop-opacity="0.16"/>
<stop offset="0.32" stop-color="#307FE2" stop-opacity="0.44"/>
<stop offset="0.56" stop-color="#307FE2" stop-opacity="0.68"/>
<stop offset="0.72" stop-color="#307FE2" stop-opacity="0.86"/>
<stop offset="0.88" stop-color="#307FE2" stop-opacity="0.96"/>
<stop offset="1" stop-color="#307FE2"/>
</linearGradient>
<linearGradient id="paint2_linear_982_10790" x1="110.667" y1="18.0009" x2="89.3334" y2="18.0009" gradientUnits="userSpaceOnUse">
<stop stop-color="#307FE2" stop-opacity="0"/>
<stop offset="0.1" stop-color="#307FE2" stop-opacity="0.16"/>
<stop offset="0.32" stop-color="#307FE2" stop-opacity="0.44"/>
<stop offset="0.56" stop-color="#307FE2" stop-opacity="0.68"/>
<stop offset="0.72" stop-color="#307FE2" stop-opacity="0.86"/>
<stop offset="0.88" stop-color="#307FE2" stop-opacity="0.96"/>
<stop offset="1" stop-color="#307FE2"/>
</linearGradient>
<linearGradient id="paint3_linear_982_10790" x1="118.667" y1="24.6674" x2="81.3334" y2="24.6674" gradientUnits="userSpaceOnUse">
<stop stop-color="#307FE2" stop-opacity="0"/>
<stop offset="0.1" stop-color="#307FE2" stop-opacity="0.16"/>
<stop offset="0.32" stop-color="#307FE2" stop-opacity="0.44"/>
<stop offset="0.56" stop-color="#307FE2" stop-opacity="0.68"/>
<stop offset="0.72" stop-color="#307FE2" stop-opacity="0.86"/>
<stop offset="0.88" stop-color="#307FE2" stop-opacity="0.96"/>
<stop offset="1" stop-color="#307FE2"/>
</linearGradient>
<linearGradient id="paint4_linear_982_10790" x1="112" y1="31.3344" x2="88" y2="31.3344" gradientUnits="userSpaceOnUse">
<stop stop-color="#307FE2" stop-opacity="0"/>
<stop offset="0.1" stop-color="#307FE2" stop-opacity="0.16"/>
<stop offset="0.32" stop-color="#307FE2" stop-opacity="0.44"/>
<stop offset="0.56" stop-color="#307FE2" stop-opacity="0.68"/>
<stop offset="0.72" stop-color="#307FE2" stop-opacity="0.86"/>
<stop offset="0.88" stop-color="#307FE2" stop-opacity="0.96"/>
<stop offset="1" stop-color="#307FE2"/>
</linearGradient>
<linearGradient id="paint5_linear_982_10790" x1="108" y1="38.0009" x2="92" y2="38.0009" gradientUnits="userSpaceOnUse">
<stop stop-color="#307FE2" stop-opacity="0"/>
<stop offset="0.1" stop-color="#307FE2" stop-opacity="0.16"/>
<stop offset="0.32" stop-color="#307FE2" stop-opacity="0.44"/>
<stop offset="0.56" stop-color="#307FE2" stop-opacity="0.68"/>
<stop offset="0.72" stop-color="#307FE2" stop-opacity="0.86"/>
<stop offset="0.88" stop-color="#307FE2" stop-opacity="0.96"/>
<stop offset="1" stop-color="#307FE2"/>
</linearGradient>
</defs>
</svg>
