<svg width="60" height="60" viewBox="0 0 60 60" fill="none" xmlns="http://www.w3.org/2000/svg">
<path d="M32.9972 2.6377C32.9972 3.06522 32.9697 4.55865 32.9697 4.97695V7.53515C32.9697 8.89836 31.6503 10 30.0207 10H29.949C28.318 10 27 8.89721 27 7.53515V2.38189C27 1.06591 28.2739 0 29.8442 0H30.1558C31.7247 0 33 1.06476 33 2.38189V2.6377H32.9972Z" fill="url(#paint0_linear_982_10741)"/>
<path d="M35.3333 14H24.6667C23.1939 14 22 15.3431 22 17C22 18.6569 23.1939 20 24.6667 20H35.3333C36.8061 20 38 18.6569 38 17C38 15.3431 36.8061 14 35.3333 14Z" fill="url(#paint1_linear_982_10741)"/>
<path d="M43.3334 24H16.6666C15.1939 24 14 25.3431 14 27C14 28.6569 15.1939 30 16.6666 30H43.3334C44.8061 30 46 28.6569 46 27C46 25.3431 44.8061 24 43.3334 24Z" fill="url(#paint2_linear_982_10741)"/>
<path d="M55.4546 34H4.5454C3.13961 34 2 35.3431 2 37C2 38.6569 3.13961 40 4.5454 40H55.4546C56.8604 40 58 38.6569 58 37C58 35.3431 56.8604 34 55.4546 34Z" fill="url(#paint3_linear_982_10741)"/>
<path d="M45.4286 44H14.5713C13.1512 44 12 45.3431 12 47C12 48.6569 13.1512 50 14.5713 50H45.4286C46.8488 50 48 48.6569 48 47C48 45.3431 46.8488 44 45.4286 44Z" fill="url(#paint4_linear_982_10741)"/>
<path d="M39.6001 54H20.3999C19.0745 54 18 55.3431 18 57C18 58.6569 19.0745 60 20.3999 60H39.6001C40.9255 60 42 58.6569 42 57C42 55.3431 40.9255 54 39.6001 54Z" fill="url(#paint5_linear_982_10741)"/>
<defs>
<linearGradient id="paint0_linear_982_10741" x1="33" y1="5.00231" x2="27" y2="5.00231" gradientUnits="userSpaceOnUse">
<stop stop-color="#307FE2" stop-opacity="0"/>
<stop offset="0.1" stop-color="#307FE2" stop-opacity="0.16"/>
<stop offset="0.32" stop-color="#307FE2" stop-opacity="0.44"/>
<stop offset="0.56" stop-color="#307FE2" stop-opacity="0.68"/>
<stop offset="0.72" stop-color="#307FE2" stop-opacity="0.86"/>
<stop offset="0.88" stop-color="#307FE2" stop-opacity="0.96"/>
<stop offset="1" stop-color="#307FE2"/>
</linearGradient>
<linearGradient id="paint1_linear_982_10741" x1="38" y1="17.0014" x2="22" y2="17.0014" gradientUnits="userSpaceOnUse">
<stop stop-color="#307FE2" stop-opacity="0"/>
<stop offset="0.1" stop-color="#307FE2" stop-opacity="0.16"/>
<stop offset="0.32" stop-color="#307FE2" stop-opacity="0.44"/>
<stop offset="0.56" stop-color="#307FE2" stop-opacity="0.68"/>
<stop offset="0.72" stop-color="#307FE2" stop-opacity="0.86"/>
<stop offset="0.88" stop-color="#307FE2" stop-opacity="0.96"/>
<stop offset="1" stop-color="#307FE2"/>
</linearGradient>
<linearGradient id="paint2_linear_982_10741" x1="46" y1="27.0014" x2="14" y2="27.0014" gradientUnits="userSpaceOnUse">
<stop stop-color="#307FE2" stop-opacity="0"/>
<stop offset="0.1" stop-color="#307FE2" stop-opacity="0.16"/>
<stop offset="0.32" stop-color="#307FE2" stop-opacity="0.44"/>
<stop offset="0.56" stop-color="#307FE2" stop-opacity="0.68"/>
<stop offset="0.72" stop-color="#307FE2" stop-opacity="0.86"/>
<stop offset="0.88" stop-color="#307FE2" stop-opacity="0.96"/>
<stop offset="1" stop-color="#307FE2"/>
</linearGradient>
<linearGradient id="paint3_linear_982_10741" x1="58" y1="37.0014" x2="2" y2="37.0014" gradientUnits="userSpaceOnUse">
<stop stop-color="#307FE2" stop-opacity="0"/>
<stop offset="0.1" stop-color="#307FE2" stop-opacity="0.16"/>
<stop offset="0.32" stop-color="#307FE2" stop-opacity="0.44"/>
<stop offset="0.56" stop-color="#307FE2" stop-opacity="0.68"/>
<stop offset="0.72" stop-color="#307FE2" stop-opacity="0.86"/>
<stop offset="0.88" stop-color="#307FE2" stop-opacity="0.96"/>
<stop offset="1" stop-color="#307FE2"/>
</linearGradient>
<linearGradient id="paint4_linear_982_10741" x1="48" y1="47.0014" x2="12" y2="47.0014" gradientUnits="userSpaceOnUse">
<stop stop-color="#307FE2" stop-opacity="0"/>
<stop offset="0.1" stop-color="#307FE2" stop-opacity="0.16"/>
<stop offset="0.32" stop-color="#307FE2" stop-opacity="0.44"/>
<stop offset="0.56" stop-color="#307FE2" stop-opacity="0.68"/>
<stop offset="0.72" stop-color="#307FE2" stop-opacity="0.86"/>
<stop offset="0.88" stop-color="#307FE2" stop-opacity="0.96"/>
<stop offset="1" stop-color="#307FE2"/>
</linearGradient>
<linearGradient id="paint5_linear_982_10741" x1="42" y1="57.0014" x2="18" y2="57.0014" gradientUnits="userSpaceOnUse">
<stop stop-color="#307FE2" stop-opacity="0"/>
<stop offset="0.1" stop-color="#307FE2" stop-opacity="0.16"/>
<stop offset="0.32" stop-color="#307FE2" stop-opacity="0.44"/>
<stop offset="0.56" stop-color="#307FE2" stop-opacity="0.68"/>
<stop offset="0.72" stop-color="#307FE2" stop-opacity="0.86"/>
<stop offset="0.88" stop-color="#307FE2" stop-opacity="0.96"/>
<stop offset="1" stop-color="#307FE2"/>
</linearGradient>
</defs>
</svg>
